name Walk01_grf.mot																		
datacolumns 19																		
datarows 73																		
range 0.775 0.847																		
endheader																		
time	1_ground_force_vx	1_ground_force_vy	1_ground_force_vz	1_ground_force_px	1_ground_force_py	1_ground_force_pz	1_ground_torque_x	1_ground_torque_y	1_ground_torque_z	2_ground_force_vx	2_ground_force_vy	2_ground_force_vz	2_ground_force_px	2_ground_force_py	2_ground_force_pz	2_ground_torque_x	2_ground_torque_y	2_ground_torque_z
0.775	132.217407	601.230164	-16.344452	0.283407	0	0.260668	0.182177	0.828412	-0.02252	1.453941	44.875942	-2.822033	0.798838	0	0.152937	0.010015	0.309119	-0.019439
0.776	132.980347	598.178406	-16.039276	0.283628	0	0.260882	0.185989	0.836626	-0.022433	1.072474	68.679657	-3.584973	0.795539	0	0.152708	0.003165	0.202653	-0.010578
0.777	132.675171	595.431824	-16.49704	0.283558	0	0.260786	0.205535	0.922421	-0.025557	0.462125	108.657684	-4.500502	0.794928	0	0.152684	0.002061	0.484588	-0.020071
0.778	133.743286	589.93866	-15.581512	0.284633	0	0.260851	0.154085	0.679667	-0.017951	-1.368926	171.981659	-5.950092	0.793389	0	0.152666	-0.006537	0.821315	-0.028415
0.779	133.285522	587.192078	-16.039276	0.284103	0	0.260578	0.193153	0.850941	-0.023244	-3.123681	266.433563	-8.010034	0.794384	0	0.153368	-0.017772	1.515826	-0.045572
0.78	134.20105	583.835144	-15.428925	0.284473	0	0.26087	0.1598	0.695204	-0.018372	-3.428852	363.63205	-9.841089	0.79692	0	0.153416	-0.016301	1.728781	-0.046787
0.781	134.506226	581.393738	-14.818573	0.283789	0	0.260396	0.224369	0.969817	-0.024719	-4.268089	447.402802	-8.391506	0.802532	0	0.153422	-0.009781	1.025289	-0.01923
0.782	133.895874	580.173035	-14.208221	0.284062	0	0.260039	0.187373	0.811891	-0.019883	-1.216342	490.89035	-4.500507	0.805762	0	0.154527	0.002287	-0.923084	0.008463
0.783	134.811401	579.257507	-13.59787	0.284673	0	0.260291	0.217326	0.933807	-0.021921	5.039749	491.805878	0.153441	0.80597	0	0.156772	-0.033535	-3.27253	-0.001021
0.784	134.811401	572.848816	-12.83493	0.284502	0	0.260562	0.230464	0.9793	-0.021942	4.734565	461.2883	2.900022	0.805505	0	0.158703	-0.05148	-5.015655	-0.031532
0.785	135.726929	565.524597	-12.682343	0.284131	0	0.260725	0.184032	0.766793	-0.017196	-7.014697	417.800751	1.145229	0.804429	0	0.159765	0.082345	-4.904558	-0.013444
0.786	136.032104	559.421082	-13.292694	0.283463	0	0.261233	0.158533	0.651956	-0.015491	-24.485988	387.43576	-7.018271	0.800944	0	0.157902	0.185644	-2.937393	0.05321
0.787	136.795044	553.927917	-14.208221	0.284625	0	0.260977	0.169056	0.684564	-0.017559	-47.52673	372.787323	-17.775781	0.796915	0	0.152241	0.004359	-0.034189	0.00163
0.788	136.489868	552.096863	-12.682343	0.284082	0	0.260602	0.216362	0.875177	-0.020104	-63.777321	373.092499	-24.794868	0.795031	0	0.146208	-0.338769	1.981772	-0.131704
0.789	136.642456	550.570984	-11.309052	0.284697	0	0.260413	0.202814	0.817194	-0.016786	-67.820887	379.653778	-29.83028	0.795105	0	0.144578	-0.669689	3.748843	-0.294555
0.79	136.489868	545.688171	-9.93576	0.284725	0	0.259741	0.21285	0.850978	-0.015494	-61.717364	392.318573	-32.424257	0.798979	0	0.14879	-0.756567	4.80927	-0.397475
0.791	137.557983	538.974304	-10.393524	0.284527	0	0.259684	0.146826	0.575289	-0.011094	-55.384971	408.187714	-30.822067	0.806994	0	0.155448	-0.469081	3.457129	-0.261046
0.792	138.473511	532.260437	-10.851288	0.284152	0	0.260568	0.094593	0.363595	-0.007413	-60.725554	428.787079	-28.151793	0.813431	0	0.160515	-0.098892	0.698283	-0.045845
0.793	137.405396	525.241394	-10.546112	0.284821	0	0.260327	0.153504	0.586778	-0.011782	-74.992539	451.82785	-21.972023	0.813743	0	0.162567	0.315095	-1.898441	0.09232
0.794	137.252808	521.88446	-10.088348	0.284557	0	0.260386	0.22573	0.858307	-0.016592	-97.575566	470.748749	-15.10563	0.810521	0	0.160583	0.503774	-2.430436	0.077989
0.795	137.10022	519.74823	-9.172821	0.284837	0	0.260199	0.182875	0.693282	-0.012235	-115.35207	481.887665	-9.688809	0.807632	0	0.155925	0.322629	-1.347795	0.027099
0.796	136.947632	514.255066	-7.494354	0.285386	0	0.259707	0.209343	0.786109	-0.011456	-123.286644	486.007538	-8.239245	0.804297	0	0.151967	-0.043091	0.169868	-0.00288
0.797	136.642456	508.456726	-7.646942	0.285761	0	0.259929	0.220136	0.819142	-0.012319	-119.929695	485.702362	-13.884988	0.801366	0	0.150428	-0.257218	1.041705	-0.02978
0.798	137.252808	499.606628	-8.562469	0.284949	0	0.260298	0.118515	0.4314	-0.007394	-108.943347	489.517059	-21.209177	0.802176	0	0.150847	-0.118971	0.534575	-0.023161
0.799	137.405396	490.146179	-9.325409	0.28448	0	0.260699	0.171544	0.611923	-0.011642	-102.076876	501.418915	-27.083792	0.804984	0	0.151883	-0.001418	0.006963	-0.000376
0.8	136.032104	486.178894	-8.104706	0.285484	0	0.259999	0.200794	0.717636	-0.011963	-98.87253	522.323425	-27.083783	0.807253	0	0.153186	-0.051927	0.274319	-0.014224
0.801	135.421753	483.432312	-6.578827	0.285591	0	0.260304	0.244599	0.873175	-0.011883	-104.441997	543.075378	-23.650571	0.808854	0	0.154443	-0.218823	1.13783	-0.049552
0.802	135.574341	478.854675	-5.358124	0.286021	0	0.259572	0.228208	0.806041	-0.009019	-116.038687	554.51947	-20.217375	0.811026	0	0.155699	-0.22682	1.083916	-0.039519
0.803	135.421753	470.920105	-3.984833	0.285389	0	0.25956	0.1774	0.616895	-0.00522	-125.651725	556.960876	-19.835932	0.811634	0	0.157161	-0.039506	0.175111	-0.006237
0.804	134.811401	461.15448	-5.205536	0.285277	0	0.260043	0.123779	0.423415	-0.00478	-127.864237	552.993591	-24.260987	0.810843	0	0.158096	0.037006	-0.160046	0.007022
0.805	133.895874	452.304382	-5.6633	0.285192	0	0.260268	0.121295	0.409737	-0.00513	-120.845181	548.110779	-28.838604	0.810792	0	0.157428	-0.093998	0.426343	-0.022432
0.806	132.980347	446.811218	-5.6633	0.285627	0	0.260104	0.144132	0.48428	-0.006138	-106.120443	546.890076	-31.27997	0.81053	0	0.15483	-0.455634	2.3481	-0.134302
0.807	132.064819	440.707703	-3.984833	0.286464	0	0.259334	0.170156	0.567821	-0.005134	-91.014243	548.263367	-31.051046	0.808838	0	0.152492	-0.639978	3.855181	-0.218339
0.808	131.30188	436.740417	-1.543427	0.286335	0	0.258869	0.220294	0.732749	-0.00259	-79.264984	549.331482	-27.999256	0.807082	0	0.151043	-0.570911	3.956597	-0.201667
0.809	130.844116	429.721375	-1.696014	0.286964	0	0.258644	0.198768	0.6528	-0.002576	-74.229599	548.873718	-22.277197	0.807385	0	0.150753	-0.310847	2.298486	-0.093289
0.81	130.233765	419.95575	-1.543427	0.286005	0	0.25943	0.139069	0.448447	-0.001648	-73.771859	548.415955	-13.65598	0.808383	0	0.152394	0.001296	-0.009636	0.00024
0.811	129.318237	410.190125	-1.543427	0.285896	0	0.259909	0.18236	0.578435	-0.002176	-76.442172	548.415955	-4.653301	0.809277	0	0.154572	0.219088	-1.571791	0.013337
0.812	128.40271	402.56073	-1.696014	0.286993	0	0.259476	0.161409	0.506039	-0.002132	-80.790944	550.552185	1.679084	0.810607	0	0.155937	0.293638	-2.001005	-0.006103
0.813	127.029419	395.236511	-0.627899	0.28675	0	0.259649	0.22154	0.689295	-0.001095	-83.384938	553.298767	1.755371	0.81158	0	0.155757	0.256357	-1.701048	-0.005397
0.814	126.266479	387.607117	1.355743	0.286718	0	0.25942	0.165681	0.5086	0.001779	-81.706452	552.841003	-5.263667	0.810493	0	0.154557	0.040083	-0.271212	0.002582
0.815	124.435425	380.89325	1.508331	0.287444	0	0.258896	0.177803	0.54425	0.002155	-75.602907	549.636658	-15.944803	0.8105	0	0.153467	-0.169068	1.229129	-0.035657
0.816	123.825073	372.348328	1.508331	0.285926	0	0.259336	0.204519	0.614998	0.002491	-70.262308	542.617615	-24.337122	0.810932	0	0.152745	-0.356437	2.752669	-0.123461
0.817	122.756958	361.667175	0.89798	0.287285	0	0.258971	0.17111	0.504126	0.001252	-67.057951	536.361511	-28.53328	0.811663	0	0.153	-0.473105	3.784118	-0.201307
0.818	121.383667	351.596375	1.355743	0.287442	0	0.259658	0.123873	0.358808	0.001384	-68.736416	531.173523	-28.991049	0.811395	0	0.153139	-0.552519	4.269695	-0.233037
0.819	119.857788	344.577332	1.355743	0.287449	0	0.259129	0.19443	0.558963	0.002199	-75.831766	530.410583	-24.260844	0.811709	0	0.153449	-0.474336	3.317778	-0.151754
0.82	117.874146	335.727234	2.729034	0.287658	0	0.259355	0.174038	0.495692	0.004029	-84.910765	529.95282	-17.089238	0.812304	0	0.153227	-0.265379	1.656305	-0.05341
0.821	115.127563	329.013367	4.407501	0.287402	0	0.257862	0.138834	0.396763	0.005315	-88.801778	530.410583	-9.459854	0.812813	0	0.154196	-0.047507	0.283761	-0.005061
0.822	113.449097	320.773621	3.949738	0.286792	0	0.258485	0.167056	0.472345	0.005816	-86.436682	527.969177	-3.280038	0.813056	0	0.154907	0.073626	-0.449722	0.002794
0.823	111.465454	311.007996	4.254913	0.287549	0	0.25845	0.195549	0.545615	0.007465	-81.477583	523.391541	-0.68603	0.8139	0	0.154749	0.075229	-0.483254	0.000633
0.824	109.024048	301.547546	3.79715	0.288682	0	0.258971	0.165757	0.458463	0.005773	-76.671063	519.271667	-1.067487	0.813956	0	0.153873	0.020268	-0.137267	0.000282
0.825	107.650757	292.087097	3.949738	0.288618	0	0.258644	0.2448	0.664212	0.008982	-75.06888	517.288025	-4.958473	0.81299	0	0.152444	-0.07829	0.539485	-0.005171
0.826	103.683472	284.457703	4.560089	0.287996	0	0.258243	0.171635	0.470885	0.007549	-77.662865	517.135437	-8.391708	0.81255	0	0.150851	-0.192629	1.28266	-0.020814
0.827	102.157593	276.217957	5.017853	0.289292	0	0.257337	0.173904	0.470209	0.008542	-83.003436	519.271667	-10.07019	0.813853	0	0.150412	-0.312193	1.953088	-0.037876
0.828	98.953247	266.452332	5.017853	0.289944	0	0.258676	0.092859	0.250042	0.004709	-87.581073	522.323425	-9.993908	0.815288	0	0.151296	-0.39859	2.377145	-0.045483
0.829	97.122192	257.602234	6.085968	0.288877	0	0.257955	0.120176	0.318749	0.007531	-91.243185	529.95282	-9.154685	0.817537	0	0.153264	-0.337522	1.960375	-0.033865
0.83	94.070435	246.921082	4.865265	0.290243	0	0.257485	0.178494	0.46852	0.009232	-93.150537	539.718445	-7.857693	0.8204	0	0.154716	-0.223642	1.295792	-0.018865
0.831	91.47644	238.681335	5.323029	0.288385	0	0.258131	0.103281	0.269483	0.00601	-93.379424	551.162537	-5.797757	0.82242	0	0.155499	-0.066117	0.390249	-0.004105
0.832	88.729858	228.305359	5.628204	0.289439	0	0.258417	0.175657	0.451971	0.011142	-92.311315	560.31781	-3.737818	0.822822	0	0.155069	-0.104497	0.634281	-0.004231
0.833	85.067749	220.065613	6.085968	0.292353	0	0.257728	0.214245	0.55424	0.015328	-91.395797	565.505798	-0.228294	0.822616	0	0.153868	-0.162059	1.00273	-0.000405
0.834	82.931519	212.741394	6.085968	0.289946	0	0.256707	0.184387	0.473002	0.013531	-91.624688	567.031677	3.204933	0.82259	0	0.152353	-0.176124	1.08997	0.006161
0.835	80.184937	202.365417	6.085968	0.28988	0	0.257516	0.18699	0.471914	0.014192	-93.150576	567.031677	6.256687	0.822099	0	0.151381	-0.147029	0.895002	0.009876
0.836	76.980591	191.684265	5.93338	0.290762	0	0.257668	0.151236	0.376582	0.011657	-94.752759	569.473083	10.147674	0.822072	0	0.150882	-0.031184	0.18742	0.00334
0.837	74.081421	181.613464	4.865265	0.29078	0	0.258593	0.104572	0.256362	0.006868	-97.423057	577.255066	13.809776	0.823472	0	0.150888	0.047371	-0.280683	-0.006715
0.838	71.640015	173.678894	5.170441	0.292473	0	0.257628	0.082423	0.19982	0.005949	-99.483008	587.78363	18.84517	0.825144	0	0.151488	0.097121	-0.57383	-0.018398
0.839	67.062378	165.133972	5.170441	0.294269	0	0.257295	0.145352	0.357913	0.011206	-101.314071	598.922546	22.125805	0.82668	0	0.152429	0.120165	-0.710363	-0.026243
0.84	63.400269	158.420105	5.93338	0.293998	0	0.254473	0.168169	0.420208	0.015738	-103.602892	608.230408	23.041326	0.82867	0	0.153493	0.141089	-0.828301	-0.031378
0.841	60.195923	151.095886	5.628204	0.294265	0	0.257221	0.245341	0.615823	0.022939	-106.807234	614.181335	21.591732	0.830464	0	0.153873	0.128453	-0.73865	-0.025967
0.842	56.686401	141.025085	4.560089	0.295213	0	0.256533	0.182512	0.454056	0.014682	-110.469334	617.690857	18.005907	0.831023	0	0.153892	0.070111	-0.392025	-0.011428
0.843	52.719116	133.395691	3.644562	0.296357	0	0.257503	0.124633	0.315361	0.008616	-113.292202	619.6745	15.259317	0.831533	0	0.153258	-0.048137	0.263295	0.006484
0.844	49.667358	123.019714	3.949738	0.296018	0	0.257655	0.157152	0.389246	0.012497	-115.123253	621.505554	13.962315	0.831579	0	0.152512	-0.200607	1.083	0.02433
0.845	43.869019	116.611023	4.254913	0.297405	0	0.257593	0.085561	0.227436	0.008299	-114.589199	623.94696	15.18302	0.832003	0	0.15171	-0.267629	1.45726	0.035461
0.846	39.291382	111.423035	3.03421	0.294812	0	0.255635	0.117928	0.334423	0.009107	-112.681858	626.235779	17.929607	0.832431	0	0.151517	-0.193884	1.077523	0.03085
0.847	35.018921	103.183289	3.339386	0.297003	0	0.256316	0.156958	0.462476	0.014967	-111.308582	629.134949	23.346481	0.833407	0	0.151908	0.003096	-0.017501	-0.000649
